<svg width="84" height="84" viewBox="0 0 84 84" fill="none" xmlns="http://www.w3.org/2000/svg">
<path d="M41.9958 33.4828C34.494 33.4828 27.5622 37.4714 23.812 43.9462C20.0606 50.421 20.0606 58.3982 23.812 64.873C27.5629 71.3478 34.4947 75.3364 41.9958 75.3364C45.1231 75.3345 48.2096 74.6289 51.025 73.2718L54.861 77.0947C55.1234 77.3588 55.4815 77.507 55.8546 77.507C56.2277 77.507 56.5858 77.3582 56.8483 77.0941L57.8282 76.1175L65.7936 84L71.6868 78.1268L63.7775 70.2307L64.7574 69.2542C65.0224 68.992 65.1717 68.6351 65.1717 68.2633C65.1717 67.8914 65.0224 67.5346 64.7574 67.273L60.9215 63.45C62.2895 60.6317 62.9982 57.5408 62.9937 54.4098C62.9937 48.8598 60.7815 43.5367 56.8438 39.6122C52.9061 35.6878 47.5647 33.4828 41.9958 33.4828ZM41.9958 69.7559C37.9119 69.7559 33.9954 68.139 31.1075 65.2611C28.2196 62.383 26.5974 58.4798 26.5974 54.4096C26.5974 50.3394 28.2198 46.4362 31.1075 43.5581C33.9954 40.6801 37.9118 39.0633 41.9958 39.0633C46.0799 39.0633 49.9963 40.6802 52.8842 43.5581C55.7721 46.4362 57.3943 50.3394 57.3943 54.4096C57.3943 58.4798 55.7719 62.383 52.8842 65.2611C49.9963 68.1392 46.0799 69.7559 41.9958 69.7559Z" fill="#4472C4"/>
<path d="M2.79972 22.3219H11.1989V41.8535H2.79972V22.3219Z" fill="#4472C4"/>
<path d="M37.7963 11.1609V27.9024H46.1954V11.1609H50.395L41.9958 0L33.5967 11.1609H37.7963Z" fill="#4472C4"/>
<path d="M74.1927 13.9512C71.5936 13.9512 69.1013 14.9801 67.2639 16.8117C65.426 18.6428 64.3936 21.1266 64.3936 23.717H69.9931C69.9931 22.6071 70.4355 21.5421 71.2229 20.7574C72.0104 19.9728 73.0791 19.5317 74.1926 19.5317C75.3061 19.5317 76.3749 19.9727 77.1622 20.7574C77.9495 21.5422 78.3921 22.6073 78.3921 23.717C78.3921 24.8267 77.9496 25.892 77.1622 26.6766C76.3748 27.4612 75.3061 27.9023 74.1926 27.9023C73.4502 27.9023 72.7377 28.1963 72.2128 28.7194C71.6878 29.2426 71.3929 29.9526 71.3929 30.6925V40.4583H76.9923V33.0779C80.0283 32.1792 82.4406 29.8735 83.4691 26.8884C84.4971 23.9032 84.0147 20.6067 82.1736 18.0394C80.3325 15.4715 77.3592 13.9488 74.1927 13.9512Z" fill="#4472C4"/>
<path d="M76.9924 47.434C76.9924 48.9749 75.7388 50.2243 74.1927 50.2243C72.6466 50.2243 71.3929 48.9749 71.3929 47.434C71.3929 45.8932 72.6466 44.6438 74.1927 44.6438C75.7388 44.6438 76.9924 45.8932 76.9924 47.434Z" fill="#4472C4"/>
<path d="M13.9986 47.434H8.39917V51.6194H5.59945V47.434H0V61.3852H13.9986V47.434Z" fill="#4472C4"/>
<path d="M43.3957 51.6194H40.596V47.434H34.9965V61.3852H48.9952V47.434H43.3957V51.6194Z" fill="#4472C4"/>
</svg>
