<svg width="84" height="39" viewBox="0 0 84 39" fill="none" xmlns="http://www.w3.org/2000/svg">
<path d="M44.4055 36.3469C44.2837 36.8186 44.1113 37.2018 43.8881 37.4966C43.6852 37.7717 43.3707 37.9879 42.9446 38.1451C42.5186 38.2827 41.9707 38.3711 41.3012 38.4104C40.6316 38.4694 39.7795 38.4989 38.7447 38.4989C37.5883 38.4989 36.6549 38.4694 35.9448 38.4104C35.255 38.3711 34.7072 38.2827 34.3014 38.1451C33.8956 37.9879 33.6014 37.7717 33.4188 37.4966C33.2362 37.2018 33.0942 36.8186 32.9927 36.3469L26.6929 12.1746H26.632L20.667 36.3469C20.5655 36.7989 20.4235 37.1723 20.2409 37.4671C20.0583 37.7423 19.7641 37.9584 19.3583 38.1156C18.9728 38.2729 18.4352 38.3711 17.7453 38.4104C17.0758 38.4694 16.1831 38.4989 15.0671 38.4989C13.8904 38.4989 12.9469 38.4694 12.2368 38.4104C11.5469 38.3711 10.9991 38.2827 10.5934 38.1451C10.1876 37.9879 9.89337 37.7717 9.71077 37.4966C9.52816 37.2018 9.37599 36.8186 9.25426 36.3469L0.30668 3.06576C0.124077 2.35828 0.0226304 1.80801 0.00234107 1.41497C-0.0179482 1.00227 0.0936429 0.687831 0.337114 0.471655C0.600875 0.25548 1.01681 0.12774 1.58491 0.0884354C2.1733 0.0294785 2.98487 0 4.01962 0C4.97322 0 5.72392 0.0196523 6.27173 0.0589569C6.83983 0.0786092 7.26591 0.147392 7.54996 0.265306C7.83401 0.363568 8.02676 0.520786 8.1282 0.736961C8.22965 0.933485 8.31081 1.21844 8.37167 1.59184L15.2802 30.805H15.3106L22.493 1.79819C22.5742 1.42479 22.6756 1.12018 22.7974 0.884354C22.9394 0.648526 23.1626 0.471655 23.4669 0.353741C23.7915 0.216175 24.2278 0.12774 24.7756 0.0884354C25.3234 0.0294785 26.0538 0 26.9668 0C27.9407 0 28.7117 0.0196523 29.2798 0.0589569C29.8682 0.0982615 30.3145 0.186697 30.6189 0.324263C30.9435 0.442177 31.1768 0.619048 31.3189 0.854875C31.4609 1.0907 31.5725 1.40514 31.6536 1.79819L39.0795 30.805H39.1404L46.0489 1.68027C46.1098 1.36584 46.1909 1.10053 46.2924 0.884354C46.3938 0.648526 46.5866 0.471655 46.8706 0.353741C47.1547 0.216175 47.5604 0.12774 48.088 0.0884354C48.6155 0.0294785 49.356 0 50.3096 0C51.2024 0 51.8922 0.0294785 52.3792 0.0884354C52.8864 0.12774 53.2516 0.25548 53.4748 0.471655C53.698 0.687831 53.7893 1.01209 53.7487 1.44444C53.7284 1.85714 53.6269 2.42706 53.4443 3.1542L44.4055 36.3469Z" fill="#AAA4A4"/>
<path d="M84 23.907C84 26.1474 83.6957 28.1912 83.087 30.0386C82.4783 31.8859 81.5552 33.4777 80.3175 34.8141C79.0799 36.1504 77.5277 37.1822 75.6611 37.9093C73.7945 38.6364 71.6134 39 69.1178 39C66.7034 39 64.6034 38.6757 62.818 38.0272C61.0325 37.3787 59.5514 36.4354 58.3746 35.1973C57.1979 33.9592 56.3254 32.4361 55.7573 30.6281C55.1892 28.8201 54.9052 26.7566 54.9052 24.4376C54.9052 22.1973 55.2095 20.1534 55.8182 18.3061C56.4472 16.4392 57.3805 14.8473 58.6181 13.5306C59.8558 12.1943 61.3977 11.1625 63.2441 10.4354C65.1107 9.70824 67.2918 9.34467 69.7874 9.34467C72.2221 9.34467 74.3322 9.66893 76.1176 10.3175C77.9031 10.9463 79.3741 11.8798 80.5305 13.1179C81.7073 14.356 82.5798 15.8791 83.1479 17.6871C83.716 19.4951 84 21.5684 84 23.907ZM76.1176 24.2018C76.1176 22.9048 76.006 21.7158 75.7828 20.6349C75.58 19.5344 75.2249 18.5813 74.7177 17.7755C74.2104 16.9698 73.5307 16.3409 72.6786 15.8889C71.8467 15.4369 70.7917 15.2109 69.5135 15.2109C68.3773 15.2109 67.3831 15.4172 66.5309 15.8299C65.6788 16.223 64.9788 16.8125 64.431 17.5986C63.8832 18.3651 63.4672 19.2986 63.1832 20.3991C62.9194 21.48 62.7876 22.7181 62.7876 24.1134C62.7876 25.4104 62.8992 26.6092 63.1223 27.7098C63.3455 28.7906 63.7006 29.7339 64.1875 30.5397C64.6947 31.3454 65.3744 31.9743 66.2266 32.4263C67.0787 32.8587 68.1338 33.0748 69.3917 33.0748C70.5482 33.0748 71.5525 32.8783 72.4047 32.4853C73.2568 32.0726 73.9568 31.483 74.5046 30.7166C75.0524 29.9501 75.4582 29.0265 75.722 27.9456C75.9857 26.8451 76.1176 25.5971 76.1176 24.2018Z" fill="#AAA4A4"/>
</svg>
