<svg width="177" height="177" viewBox="0 0 177 177" fill="none" xmlns="http://www.w3.org/2000/svg">
<path d="M154.164 82.6307L158.353 78.473C158.911 77.9188 159.226 77.1644 159.226 76.3784C159.226 75.5925 158.911 74.8381 158.353 74.2851L149.503 65.6143C155.253 52.0672 154.351 36.6136 147.063 23.8255C139.775 11.0391 126.937 2.38446 112.348 0.421582C97.7585 -1.54005 83.0876 3.41407 72.6797 13.82C62.2706 24.2273 57.3136 38.8923 59.2771 53.4753C61.2407 68.0611 69.8983 80.8947 82.6884 88.1797C95.4798 95.4653 110.938 96.3672 124.49 90.6192L133.164 99.4663C133.717 100.025 134.472 100.339 135.258 100.339C136.044 100.339 136.799 100.025 137.352 99.4663L141.6 95.1901L164.61 118.016L177 105.63L154.164 82.6307ZM106.199 82.6307C96.8102 82.6307 87.8063 78.9024 81.1676 72.2655C74.529 65.6287 70.7993 56.6279 70.7993 47.2422C70.7993 37.8564 74.5287 28.8553 81.1676 22.2188C87.8066 15.5823 96.8102 11.8537 106.199 11.8537C115.588 11.8537 124.592 15.5819 131.23 22.2188C137.869 28.8556 141.599 37.8564 141.599 47.2422C141.599 56.6279 137.869 65.629 131.23 72.2655C124.591 78.9021 115.588 82.6307 106.199 82.6307Z" fill="#4472C4"/>
<path d="M76.6992 100.325H48.6745V123.917L38.3496 118.019L28.0247 123.917V100.325H0V177H76.6992V100.325Z" fill="#4472C4"/>
<path d="M106.199 26.5989C103.07 26.5989 100.068 27.8417 97.8547 30.0534C95.6422 32.2665 94.399 35.267 94.399 38.395H100.299C100.299 36.831 100.921 35.3301 102.027 34.2242C103.133 33.1184 104.634 32.4969 106.199 32.4969C107.763 32.4969 109.265 33.1184 110.371 34.2242C111.477 35.3301 112.099 36.831 112.099 38.395C112.099 39.9591 111.477 41.4599 110.371 42.5658C109.265 43.6717 107.763 44.2931 106.199 44.2931C104.57 44.2931 103.249 45.6136 103.249 47.2421V56.0893H109.149V49.808C112.878 48.8338 115.896 46.0993 117.232 42.4853C118.569 38.8713 118.057 34.8322 115.858 31.6672C113.66 28.5022 110.053 26.6093 106.199 26.5989Z" fill="#4472C4"/>
<path d="M103.249 61.9874H109.149V67.8854H103.249V61.9874Z" fill="#4472C4"/>
</svg>
